<svg width="55" height="56" viewBox="0 0 55 56" fill="none" xmlns="http://www.w3.org/2000/svg">
<mask id="path-1-outside-1_236_209" maskUnits="userSpaceOnUse" x="0.000976562" y="0" width="55" height="57" fill="black">
<rect fill="white" x="0.000976562" width="55" height="57"/>
<path d="M3.00098 23.3168C3.00098 23.3168 4.5589 23.4775 7.37455 25.7379C8.44993 24.6111 9.44779 23.583 10.3781 22.6477C9.00673 21.3318 7.66559 20.325 6.46448 19.8392C4.35504 21.8254 3.00098 23.3168 3.00098 23.3168Z"/>
<path d="M30.2768 21.7958C31.3537 22.1813 32.4294 22.496 33.5198 22.608C32.6262 20.925 31.6044 19.2562 30.5524 17.7095C30.4987 17.6793 30.4453 17.6493 30.3921 17.6195L30.2409 17.5346C28.5126 16.564 27.0775 15.7581 25.7655 15.22C27.2914 17.1497 28.8876 19.4698 30.2768 21.7958Z"/>
<path fill-rule="evenodd" clip-rule="evenodd" d="M9.2068 17.3784C8.20329 18.2341 7.27775 19.0734 6.46448 19.8392C7.66559 20.325 9.00673 21.3318 10.3781 22.6477C9.44779 23.583 8.44993 24.6111 7.37455 25.7379C8.37067 26.5376 9.52421 27.6 10.8219 29.0111C12.6116 30.9573 14.6755 33.5667 16.9787 37.0646C17.313 35.3771 17.7589 34.0062 18.3009 32.8978C19.0419 31.3827 19.9624 30.3581 21.0232 29.6859C22.1788 28.9536 23.5007 28.6395 24.938 28.5652C26.4299 28.488 28.0461 28.6692 29.7294 28.9092C30.182 30.2554 30.4293 31.5151 30.3983 32.6062C31.5881 32.584 32.7654 32.6622 33.8636 32.81C34.7853 32.9341 35.6512 33.1071 36.4217 33.3109C37.0666 33.4814 37.7291 33.5526 38.4022 33.5369C41.1562 33.4724 44.0894 31.9527 46.7367 29.8289C47.9975 28.8175 49.1934 27.6692 50.2742 26.4758C51.3015 25.3416 52.2247 24.1668 53.001 23.0302C51.8002 22.5921 50.7054 22.0524 49.7075 21.4368C48.3902 20.6241 47.2418 19.6792 46.2414 18.6608C40.6548 12.9744 39.6821 5 39.6821 5C39.6821 5 34.9358 20.3611 27.8817 12.0214C27.5109 11.5831 27.1104 11.2221 26.6843 10.9314C25.6482 10.2246 24.4607 9.93382 23.1815 9.95968C23.1365 9.95678 23.0937 9.95796 23.0534 9.96331C22.1702 9.99551 21.2446 10.1757 20.296 10.4716C20.2356 10.482 20.1789 10.5 20.1262 10.5257C18.725 10.9817 17.2764 11.6846 15.8424 12.5314C14.7039 13.2036 13.5747 13.9665 12.4855 14.7685C11.3357 15.6151 10.2307 16.5053 9.2068 17.3784ZM30.2768 21.7958C31.3537 22.1813 32.4294 22.496 33.5198 22.608C32.6262 20.925 31.6044 19.2562 30.5524 17.7095L30.3921 17.6195L30.2409 17.5346C28.5126 16.564 27.0775 15.7581 25.7655 15.22C27.2914 17.1497 28.8876 19.4698 30.2768 21.7958Z"/>
<path d="M19.6708 41.3895C19.6708 34.7514 25.1548 32.7038 30.3983 32.6062C30.4293 31.5151 30.182 30.2554 29.7294 28.9092C28.0461 28.6692 26.4299 28.488 24.938 28.5652C23.5007 28.6395 22.1788 28.9536 21.0232 29.6859C19.9624 30.3581 19.0419 31.3827 18.3009 32.8978C17.7589 34.0062 17.313 35.3771 16.9787 37.0646L16.9802 37.0668C17.0573 37.1839 17.1346 37.3019 17.2122 37.421C17.2429 37.4681 17.2736 37.5153 17.3044 37.5627C18.068 38.7387 18.8572 40.0117 19.6708 41.3895Z"/>
</mask>
<path d="M3.00098 23.3168C3.00098 23.3168 4.5589 23.4775 7.37455 25.7379C8.44993 24.6111 9.44779 23.583 10.3781 22.6477C9.00673 21.3318 7.66559 20.325 6.46448 19.8392C4.35504 21.8254 3.00098 23.3168 3.00098 23.3168Z" fill="url(#paint0_linear_236_209)"/>
<path d="M30.2768 21.7958C31.3537 22.1813 32.4294 22.496 33.5198 22.608C32.6262 20.925 31.6044 19.2562 30.5524 17.7095C30.4987 17.6793 30.4453 17.6493 30.3921 17.6195L30.2409 17.5346C28.5126 16.564 27.0775 15.7581 25.7655 15.22C27.2914 17.1497 28.8876 19.4698 30.2768 21.7958Z" fill="url(#paint1_linear_236_209)"/>
<path fill-rule="evenodd" clip-rule="evenodd" d="M9.2068 17.3784C8.20329 18.2341 7.27775 19.0734 6.46448 19.8392C7.66559 20.325 9.00673 21.3318 10.3781 22.6477C9.44779 23.583 8.44993 24.6111 7.37455 25.7379C8.37067 26.5376 9.52421 27.6 10.8219 29.0111C12.6116 30.9573 14.6755 33.5667 16.9787 37.0646C17.313 35.3771 17.7589 34.0062 18.3009 32.8978C19.0419 31.3827 19.9624 30.3581 21.0232 29.6859C22.1788 28.9536 23.5007 28.6395 24.938 28.5652C26.4299 28.488 28.0461 28.6692 29.7294 28.9092C30.182 30.2554 30.4293 31.5151 30.3983 32.6062C31.5881 32.584 32.7654 32.6622 33.8636 32.81C34.7853 32.9341 35.6512 33.1071 36.4217 33.3109C37.0666 33.4814 37.7291 33.5526 38.4022 33.5369C41.1562 33.4724 44.0894 31.9527 46.7367 29.8289C47.9975 28.8175 49.1934 27.6692 50.2742 26.4758C51.3015 25.3416 52.2247 24.1668 53.001 23.0302C51.8002 22.5921 50.7054 22.0524 49.7075 21.4368C48.3902 20.6241 47.2418 19.6792 46.2414 18.6608C40.6548 12.9744 39.6821 5 39.6821 5C39.6821 5 34.9358 20.3611 27.8817 12.0214C27.5109 11.5831 27.1104 11.2221 26.6843 10.9314C25.6482 10.2246 24.4607 9.93382 23.1815 9.95968C23.1365 9.95678 23.0937 9.95796 23.0534 9.96331C22.1702 9.99551 21.2446 10.1757 20.296 10.4716C20.2356 10.482 20.1789 10.5 20.1262 10.5257C18.725 10.9817 17.2764 11.6846 15.8424 12.5314C14.7039 13.2036 13.5747 13.9665 12.4855 14.7685C11.3357 15.6151 10.2307 16.5053 9.2068 17.3784ZM30.2768 21.7958C31.3537 22.1813 32.4294 22.496 33.5198 22.608C32.6262 20.925 31.6044 19.2562 30.5524 17.7095L30.3921 17.6195L30.2409 17.5346C28.5126 16.564 27.0775 15.7581 25.7655 15.22C27.2914 17.1497 28.8876 19.4698 30.2768 21.7958Z" fill="url(#paint2_linear_236_209)"/>
<path d="M19.6708 41.3895C19.6708 34.7514 25.1548 32.7038 30.3983 32.6062C30.4293 31.5151 30.182 30.2554 29.7294 28.9092C28.0461 28.6692 26.4299 28.488 24.938 28.5652C23.5007 28.6395 22.1788 28.9536 21.0232 29.6859C19.9624 30.3581 19.0419 31.3827 18.3009 32.8978C17.7589 34.0062 17.313 35.3771 16.9787 37.0646L16.9802 37.0668C17.0573 37.1839 17.1346 37.3019 17.2122 37.421C17.2429 37.4681 17.2736 37.5153 17.3044 37.5627C18.068 38.7387 18.8572 40.0117 19.6708 41.3895Z" fill="url(#paint3_linear_236_209)"/>
<path d="M53.001 23.0302L53.4139 23.3122L53.7767 22.781L53.1724 22.5605L53.001 23.0302ZM3.00098 23.3168L2.63079 22.9807L1.96621 23.7127L2.94967 23.8142L3.00098 23.3168ZM27.4999 12.3443C27.6783 12.5551 27.9938 12.5815 28.2046 12.4032C28.4154 12.2248 28.4418 11.9093 28.2634 11.6985L27.4999 12.3443ZM7.01284 25.3927C6.82219 25.5925 6.82958 25.909 7.02935 26.0996C7.22912 26.2903 7.54562 26.2829 7.73627 26.0831L7.01284 25.3927ZM41.7561 11.19C41.899 10.9537 41.8232 10.6463 41.5868 10.5035C41.3505 10.3606 41.0431 10.4364 40.9003 10.6727L41.7561 11.19ZM10.3951 28.7506C10.2512 28.9862 10.3256 29.294 10.5613 29.4379C10.797 29.5818 11.1047 29.5074 11.2486 29.2717L10.3951 28.7506ZM44.0863 15.7005C44.2304 15.4649 44.1562 15.1572 43.9206 15.0131C43.6851 14.869 43.3773 14.9432 43.2332 15.1787L44.0863 15.7005ZM13.5157 32.5506C13.4114 32.8063 13.534 33.0981 13.7897 33.2025C14.0453 33.3068 14.3372 33.1842 14.4416 32.9285L13.5157 32.5506ZM46.2414 18.6608L45.7804 18.4672L45.7804 18.4672L46.2414 18.6608ZM25.0473 55.7123C25.1645 55.9623 25.4622 56.0699 25.7123 55.9527C25.9623 55.8355 26.0699 55.5378 25.9527 55.2877L25.0473 55.7123ZM36.1956 12.4651C36.159 12.1914 35.9074 11.9992 35.6337 12.0358C35.36 12.0725 35.1679 12.324 35.2045 12.5977L36.1956 12.4651ZM46.4185 30.2146C46.6315 30.3903 46.9466 30.3602 47.1224 30.1472C47.2981 29.9342 47.268 29.6191 47.055 29.4433L46.4185 30.2146ZM32.9112 14.262C32.7914 14.0132 32.4926 13.9086 32.2438 14.0285C31.995 14.1483 31.8904 14.4471 32.0102 14.6959L32.9112 14.262ZM42.0472 32.4431C42.214 32.6632 42.5277 32.7064 42.7477 32.5395C42.9678 32.3727 43.011 32.0591 42.8441 31.839L42.0472 32.4431ZM27.0474 10.5876C26.8575 10.3871 26.5411 10.3784 26.3406 10.5683C26.14 10.7581 26.1314 11.0746 26.3212 11.2751L27.0474 10.5876ZM37.9066 33.4704C37.8699 33.744 38.062 33.9957 38.3357 34.0324C38.6093 34.0692 38.861 33.8771 38.8977 33.6034L37.9066 33.4704ZM38.4559 8.96242C38.3792 8.69714 38.102 8.54426 37.8367 8.62095C37.5714 8.69764 37.4186 8.97487 37.4953 9.24015L38.4559 8.96242ZM50.0001 26.894C50.2311 27.0453 50.541 26.9809 50.6924 26.7499C50.8438 26.519 50.7793 26.209 50.5484 26.0576L50.0001 26.894ZM33.4666 32.506C33.2987 32.7253 33.3404 33.0391 33.5596 33.207C33.7789 33.3749 34.0927 33.3332 34.2606 33.114L33.4666 32.506ZM15.6895 12.0553C15.4266 12.1398 15.2819 12.4213 15.3663 12.6843C15.4508 12.9472 15.7323 13.0919 15.9952 13.0075L15.6895 12.0553ZM29.898 32.61C29.8893 32.886 30.1059 33.1168 30.382 33.1255C30.658 33.1342 30.8888 32.9175 30.8975 32.6415L29.898 32.61ZM12.5847 14.2784C12.314 14.2237 12.0502 14.3987 11.9954 14.6694C11.9407 14.94 12.1157 15.2038 12.3864 15.2586L12.5847 14.2784ZM26.1244 33.0056C26.2065 33.2693 26.4867 33.4165 26.7504 33.3344C27.0141 33.2523 27.1613 32.9721 27.0792 32.7084L26.1244 33.0056ZM9.42595 16.929C9.17775 16.808 8.87842 16.9111 8.75739 17.1593C8.63636 17.4075 8.73945 17.7068 8.98765 17.8278L9.42595 16.929ZM22.8669 34.274C22.9865 34.5229 23.2852 34.6277 23.5341 34.5081C23.783 34.3885 23.8878 34.0897 23.7682 33.8408L22.8669 34.274ZM6.65196 19.3757C6.39597 19.2721 6.10451 19.3957 6.00096 19.6517C5.89742 19.9077 6.021 20.1992 6.277 20.3027L6.65196 19.3757ZM20.0966 37.27C20.2101 37.5218 20.5061 37.6339 20.7579 37.5204C21.0097 37.4069 21.1218 37.1109 21.0083 36.8591L20.0966 37.27ZM50.1541 21.6616C50.2783 21.415 50.179 21.1144 49.9324 20.9902C49.6857 20.866 49.3851 20.9652 49.2609 21.2119L50.1541 21.6616ZM16.4882 36.9674C16.4346 37.2383 16.6107 37.5014 16.8815 37.555C17.1524 37.6087 17.4155 37.4326 17.4692 37.1617L16.4882 36.9674ZM31.9656 18.4969L31.7242 18.9348L31.7576 18.9532L31.7933 18.9663L31.9656 18.4969ZM23.1815 9.95968L23.1714 9.45978L23.1815 9.95968ZM30.3983 32.6062L29.8985 32.5919L29.8985 32.5919L30.3983 32.6062ZM30.3921 17.6195L30.1473 18.0555L30.6369 17.1835L30.3921 17.6195ZM17.7237 37.2904C17.5734 37.0588 17.2637 36.9929 17.0321 37.1433C16.8005 37.2937 16.7346 37.6033 16.885 37.8349L17.7237 37.2904ZM16.5626 37.3417C16.7144 37.5724 17.0245 37.6362 17.2551 37.4844C17.4858 37.3325 17.5496 37.0225 17.3978 36.7918L16.5626 37.3417ZM35.2045 12.5977C35.6527 15.947 37.4082 19.4792 39.5536 22.5899C41.7032 25.7067 44.2767 28.4469 46.4185 30.2146L47.055 29.4433C44.9883 27.7376 42.4767 25.0669 40.3768 22.0221C38.2726 18.9712 36.614 15.5913 36.1956 12.4651L35.2045 12.5977ZM32.0102 14.6959C36.2982 23.6 37.5561 26.5185 42.0472 32.4431L42.8441 31.839C38.4231 26.0068 37.2053 23.1789 32.9112 14.262L32.0102 14.6959ZM26.3212 11.2751C28.6072 13.6897 31.7349 17.6594 34.177 21.8398C35.3976 23.9294 36.44 26.0597 37.1218 28.0656C37.8058 30.0778 38.1138 31.9272 37.9066 33.4704L38.8977 33.6034C39.1339 31.844 38.7766 29.8266 38.0686 27.7437C37.3585 25.6545 36.2825 23.4615 35.0404 21.3354C32.5572 17.0846 29.3825 13.0541 27.0474 10.5876L26.3212 11.2751ZM37.4953 9.24015C39.7663 17.0957 43.7988 22.8287 50.0001 26.894L50.5484 26.0576C44.5705 22.1388 40.6689 16.6172 38.4559 8.96242L37.4953 9.24015ZM36.2939 33.7943C39.3771 34.6097 42.749 33.3008 45.7511 31.1951C48.7708 29.0772 51.5226 26.0815 53.4139 23.3122L52.5881 22.7482C50.7522 25.4363 48.0815 28.3392 45.1769 30.3764C42.2549 32.4259 39.2007 33.5287 36.5496 32.8275L36.2939 33.7943ZM31.7933 18.9663C33.2609 19.5049 34.9236 18.9151 36.5745 17.59C38.2407 16.2525 40.0075 14.0831 41.7561 11.19L40.9003 10.6727C39.1831 13.5139 37.4877 15.5746 35.9485 16.8101C34.3941 18.0579 33.1084 18.3838 32.1379 18.0276L31.7933 18.9663ZM6.277 20.3027C7.39019 20.753 8.67662 21.708 10.032 23.0085L10.7243 22.287C9.33683 20.9556 7.94098 19.897 6.65196 19.3757L6.277 20.3027ZM10.0237 22.2951C9.09026 23.2335 8.08993 24.2641 7.01284 25.3927L7.73627 26.0831C8.80994 24.9581 9.80531 23.9326 10.7326 23.0004L10.0237 22.2951ZM30.4076 33.1061C32.5482 33.0662 34.6486 33.3591 36.2939 33.7943L36.5496 32.8275C34.8178 32.3695 32.6251 32.0646 30.389 32.1062L30.4076 33.1061ZM45.8847 19.0112C47.6893 20.848 49.9663 22.4552 52.8296 23.4999L53.1724 22.5605C50.4638 21.5722 48.3102 20.0531 46.5981 18.3104L45.8847 19.0112ZM14.4416 32.9285C16.4616 27.9803 18.9103 25.9225 21.4972 25.2036C24.1385 24.4695 27.0355 25.0884 30.0782 25.7862C33.0613 26.4703 36.1968 27.235 39.0897 26.5636C42.0491 25.8767 44.6576 23.7236 46.7024 18.8544L45.7804 18.4672C43.8188 23.1384 41.4194 24.9963 38.8637 25.5895C36.2415 26.198 33.3545 25.5116 30.3017 24.8115C27.3087 24.1251 24.1566 23.4266 21.2294 24.2401C18.2479 25.0687 15.6088 27.4234 13.5157 32.5506L14.4416 32.9285ZM46.7024 18.8544C46.7053 18.8477 46.7067 18.8443 46.7072 18.843C46.7074 18.8427 46.7073 18.8429 46.7071 18.8433C46.707 18.8436 46.7068 18.8441 46.7064 18.8448C46.7062 18.8453 46.7055 18.8469 46.7046 18.849C46.7041 18.8501 46.7032 18.8521 46.702 18.8547C46.7014 18.856 46.7005 18.858 46.6993 18.8604C46.6983 18.8626 46.6962 18.8669 46.6935 18.8723C46.6922 18.8748 46.689 18.8809 46.6871 18.8844C46.6844 18.8894 46.6771 18.9019 46.6725 18.9095C46.664 18.9226 46.6342 18.9628 46.6114 18.9886C46.5192 19.0653 46.0607 19.1088 45.8022 18.8716C45.7601 18.7547 45.7504 18.596 45.7551 18.5611C45.758 18.5455 45.7636 18.5213 45.7659 18.5127C45.7674 18.5072 45.7702 18.4979 45.7714 18.4941C45.7723 18.4913 45.7739 18.4864 45.7746 18.4843C45.7762 18.4797 45.7775 18.4761 45.7782 18.4741C45.779 18.4719 45.7797 18.4702 45.7801 18.4689C45.781 18.4666 45.7817 18.4647 45.7821 18.4637C45.7829 18.4617 45.7835 18.4602 45.7837 18.4597C45.784 18.459 45.7842 18.4585 45.7843 18.4582C45.7844 18.4579 45.7845 18.4577 45.7845 18.4577C45.7846 18.4575 45.7846 18.4575 45.7845 18.4578C45.7843 18.4583 45.7839 18.4592 45.7834 18.4604C45.7824 18.4628 45.7811 18.4659 45.7798 18.4691C45.7785 18.4723 45.7772 18.4753 45.7762 18.4777C45.7757 18.4789 45.7754 18.4797 45.7752 18.4802C45.775 18.4805 45.775 18.4805 45.7751 18.4803C45.7752 18.4802 45.7752 18.48 45.7754 18.4797C45.7755 18.4794 45.7757 18.4788 45.7761 18.4781C45.7763 18.4775 45.7771 18.4758 45.778 18.4736C45.7785 18.4725 45.7795 18.4703 45.7808 18.4674C45.7815 18.466 45.7825 18.4637 45.7839 18.461C45.7844 18.4597 45.7858 18.457 45.7865 18.4555C45.7874 18.4536 45.7896 18.4493 45.7909 18.4469C45.7926 18.4437 45.7968 18.4358 45.7993 18.4313C45.8032 18.4244 45.8145 18.406 45.8221 18.3947C45.8386 18.3718 45.9191 18.2892 45.9913 18.2402C46.3192 18.1839 46.7003 18.4941 46.7347 18.6642C46.7339 18.7076 46.7263 18.7688 46.7227 18.7866C46.7204 18.7962 46.7163 18.8118 46.7146 18.8178C46.7134 18.8219 46.7112 18.8289 46.7102 18.8318C46.7095 18.834 46.7082 18.838 46.7076 18.8397C46.7063 18.8436 46.7051 18.8466 46.7045 18.8484C46.7038 18.8503 46.7032 18.8519 46.7028 18.853C46.702 18.8552 46.7013 18.8569 46.701 18.8578C46.7002 18.8596 46.6997 18.861 46.6995 18.8615C46.6992 18.8622 46.699 18.8627 46.6989 18.8629C46.6988 18.8633 46.6987 18.8634 46.6989 18.8631C46.6994 18.8617 46.7009 18.8582 46.7037 18.8514L45.7791 18.4703C45.7763 18.4772 45.7742 18.4823 45.7728 18.4857C45.7725 18.4866 45.772 18.4877 45.7716 18.4888C45.7713 18.4894 45.771 18.4901 45.7706 18.4911C45.7703 18.4918 45.7697 18.4934 45.7689 18.4954C45.7685 18.4964 45.7679 18.4982 45.767 18.5004C45.7666 18.5015 45.766 18.5031 45.7653 18.5051C45.7646 18.5069 45.7635 18.5099 45.7622 18.5138C45.7616 18.5155 45.7603 18.5195 45.7595 18.5217C45.7586 18.5247 45.7564 18.5317 45.7552 18.5358C45.7535 18.5417 45.7494 18.5573 45.7471 18.5669C45.7434 18.5848 45.7358 18.646 45.735 18.6894C45.7695 18.8595 46.1506 19.1696 46.4785 19.1134C46.5507 19.0644 46.6311 18.9817 46.6477 18.9589C46.6552 18.9475 46.6665 18.9292 46.6705 18.9223C46.673 18.9177 46.6772 18.9099 46.6789 18.9067C46.6802 18.9042 46.6823 18.8999 46.6833 18.898C46.684 18.8965 46.6853 18.8938 46.6859 18.8926C46.6873 18.8898 46.6883 18.8875 46.689 18.886C46.6903 18.8832 46.6913 18.8809 46.6918 18.8797C46.6929 18.8774 46.6937 18.8755 46.694 18.8747C46.6948 18.873 46.6954 18.8715 46.6957 18.8708C46.6961 18.8699 46.6964 18.8691 46.6968 18.8683C46.6974 18.8669 46.698 18.8653 46.6987 18.8637C46.7 18.8605 46.7016 18.8568 46.7031 18.8532C46.7046 18.8495 46.7062 18.8458 46.7075 18.8426C46.7081 18.841 46.7088 18.8394 46.7094 18.8379C46.7097 18.8372 46.7101 18.8363 46.7104 18.8355C46.7107 18.8347 46.7113 18.8333 46.712 18.8317C46.7123 18.8309 46.7129 18.8292 46.7138 18.8271C46.7142 18.826 46.7149 18.8241 46.7158 18.8217C46.7163 18.8205 46.717 18.8187 46.7178 18.8165C46.7185 18.8145 46.7198 18.8109 46.7214 18.8063C46.7221 18.8042 46.7237 18.7992 46.7246 18.7965C46.7258 18.7927 46.7286 18.7833 46.7301 18.7778C46.7324 18.7692 46.7379 18.745 46.7409 18.7294C46.7456 18.6945 46.7359 18.5358 46.6938 18.4189C46.4353 18.1817 45.9768 18.2252 45.8846 18.3018C45.8618 18.3277 45.832 18.3679 45.8235 18.381C45.8189 18.3886 45.8116 18.4011 45.8089 18.4061C45.807 18.4096 45.8038 18.4157 45.8025 18.4183C45.7997 18.4237 45.7977 18.428 45.7966 18.4301C45.7955 18.4326 45.7945 18.4346 45.7939 18.4359C45.7927 18.4386 45.7918 18.4407 45.7913 18.4417C45.7903 18.444 45.7895 18.4458 45.7892 18.4466C45.7887 18.4475 45.7884 18.4483 45.7881 18.4489C45.7876 18.4501 45.7872 18.4512 45.7868 18.4521C45.7854 18.4554 45.7833 18.4605 45.7804 18.4672L46.7024 18.8544ZM29.8985 32.5919C29.8983 32.5981 29.8982 32.6041 29.898 32.61L30.8975 32.6415C30.8977 32.6344 30.8979 32.6273 30.8981 32.6204L29.8985 32.5919ZM3.00098 23.3168C3.37117 23.6529 3.37115 23.6529 3.37118 23.6529C3.37123 23.6528 3.37129 23.6528 3.3714 23.6527C3.37162 23.6524 3.37199 23.652 3.3725 23.6515C3.37351 23.6503 3.3751 23.6486 3.37725 23.6462C3.38155 23.6415 3.3881 23.6343 3.39688 23.6248C3.41442 23.6056 3.44083 23.5769 3.47577 23.5392C3.54565 23.4637 3.64963 23.3522 3.78503 23.209C4.05585 22.9227 4.45223 22.5102 4.9527 22.0071C5.95395 21.0006 7.37015 19.6334 9.0296 18.1908C12.3653 15.2909 16.6222 12.1413 20.4449 10.9489L20.1471 9.99426C16.1113 11.2532 11.7207 14.5262 8.37351 17.4361C6.69152 18.8984 5.25743 20.2829 4.24375 21.3018C3.73675 21.8115 3.33451 22.2301 3.05857 22.5218C2.92059 22.6677 2.81416 22.7818 2.74197 22.8598C2.70588 22.8988 2.67834 22.9287 2.6597 22.9491C2.65038 22.9592 2.64328 22.967 2.63845 22.9723C2.63603 22.975 2.63418 22.977 2.6329 22.9784C2.63226 22.9791 2.63177 22.9796 2.63141 22.98C2.63124 22.9802 2.63108 22.9804 2.63099 22.9805C2.63087 22.9806 2.63079 22.9807 3.00098 23.3168ZM20.4449 10.9489C21.4061 10.6491 22.3279 10.477 23.1917 10.4596L23.1714 9.45978C22.1919 9.47959 21.175 9.67362 20.1471 9.99426L20.4449 10.9489ZM23.1917 10.4596C24.8665 10.4257 26.3373 10.9698 27.4999 12.3443L28.2634 11.6985C26.8816 10.0648 25.1071 9.42064 23.1714 9.45978L23.1917 10.4596ZM33.5709 22.1106C32.5392 22.0046 31.5074 21.7053 30.4453 21.325L30.1082 22.2665C31.2001 22.6574 32.3196 22.9873 33.4687 23.1054L33.5709 22.1106ZM30.706 21.5394C29.3064 19.1959 27.698 16.8577 26.1577 14.9099L25.3733 15.5301C26.8849 17.4416 28.4688 19.7436 29.8475 22.0521L30.706 21.5394ZM25.5757 15.6826C26.8534 16.2066 28.2591 16.9951 29.9961 17.9705L30.4857 17.0986C28.7661 16.1329 27.3017 15.3096 25.9552 14.7574L25.5757 15.6826ZM30.139 17.9907C31.1819 19.5241 32.1941 21.1774 33.0782 22.8425L33.9614 22.3735C33.0583 20.6726 32.0268 18.9882 30.9659 17.4283L30.139 17.9907ZM10.7326 23.0004C14.7306 18.9811 17.4257 16.7354 19.6362 15.6997C20.7281 15.1881 21.6904 14.9779 22.6274 14.9921C23.5685 15.0064 24.5151 15.2476 25.5757 15.6826L25.9552 14.7574C24.8233 14.2932 23.7491 14.009 22.6426 13.9922C21.5319 13.9753 20.4199 14.2282 19.2119 14.7941C16.8228 15.9135 14.0167 18.2808 10.0237 22.2951L10.7326 23.0004ZM30.3077 18.1455C30.7584 18.3984 31.2298 18.6622 31.7242 18.9348L32.207 18.0591C31.716 17.7883 31.2472 17.526 30.7971 17.2735L30.3077 18.1455ZM23.1494 10.4586C23.215 10.4629 23.3355 10.493 23.52 10.5861C23.6996 10.6766 23.9135 10.8132 24.1594 10.9987C24.6513 11.3698 25.237 11.9108 25.885 12.5942C27.1791 13.9591 28.6857 15.8538 30.139 17.9907L30.9659 17.4283C29.4897 15.2579 27.95 13.3188 26.6106 11.9062C25.9419 11.2008 25.314 10.6171 24.7617 10.2004C24.4856 9.99208 24.2198 9.81897 23.9702 9.69315C23.7257 9.56987 23.4677 9.47705 23.2136 9.46071L23.1494 10.4586ZM33.0782 22.8425C34.1186 24.8019 34.9761 26.7673 35.5003 28.5666C36.0273 30.3754 36.203 31.9675 35.9332 33.2043L36.9102 33.4174C37.2317 31.9434 37.0069 30.1626 36.4604 28.2868C35.9111 26.4016 35.022 24.371 33.9614 22.3735L33.0782 22.8425ZM20.3809 10.9643C20.4685 10.9492 20.6702 10.9744 21.0223 11.1679C21.3582 11.3526 21.7627 11.6525 22.224 12.0629C23.1444 12.8818 24.2332 14.0884 25.3733 15.5301L26.1577 14.9099C24.9998 13.4457 23.8702 12.1891 22.8887 11.3158C22.3989 10.88 21.9314 10.5266 21.504 10.2916C21.0929 10.0656 20.6399 9.90493 20.2111 9.97885L20.3809 10.9643ZM29.8475 22.0521C31.2468 24.3951 32.424 26.7268 33.1026 28.6522C33.4424 29.6164 33.6494 30.4572 33.7048 31.1347C33.7613 31.8262 33.6531 32.2624 33.4666 32.506L34.2606 33.114C34.6713 32.5776 34.7654 31.8364 34.7014 31.0532C34.6363 30.256 34.3999 29.3247 34.0457 28.3198C33.3363 26.3068 32.1227 23.9114 30.706 21.5394L29.8475 22.0521ZM11.2486 29.2717C15.2613 22.7002 18.5992 20.548 21.5189 20.1741C22.9926 19.9854 24.412 20.2412 25.8344 20.683C27.2897 21.135 28.6337 21.7386 30.1082 22.2665L30.4453 21.325C29.0862 20.8384 27.5919 20.1818 26.1311 19.728C24.6374 19.264 23.063 18.9682 21.3919 19.1822C18.0219 19.6138 14.466 22.0838 10.3951 28.7506L11.2486 29.2717ZM33.4687 23.1054C35.1355 23.2765 36.8461 22.9996 38.624 21.8689C40.3865 20.7479 42.1869 18.806 44.0863 15.7005L43.2332 15.1787C41.377 18.2136 39.6731 20.0166 38.0873 21.0251C36.5169 22.0239 35.0354 22.261 33.5709 22.1106L33.4687 23.1054ZM30.6369 17.1835L30.4857 17.0986L29.9961 17.9705L30.1473 18.0554L30.6369 17.1835ZM29.9961 17.9705C30.0462 17.9987 30.0966 18.027 30.1473 18.0555L30.6369 17.1835C30.5862 17.1551 30.5359 17.1268 30.4857 17.0986L29.9961 17.9705ZM17.4692 37.1617C17.7973 35.5054 18.2315 34.1778 18.7501 33.1174L17.8518 32.6781C17.2862 33.8346 16.8287 35.2488 16.4882 36.9674L17.4692 37.1617ZM18.7501 33.1174C19.4568 31.6724 20.3196 30.7238 21.2909 30.1082L20.7556 29.2636C19.6053 29.9925 18.6269 31.0931 17.8518 32.6781L18.7501 33.1174ZM21.2909 30.1082C22.3519 29.4358 23.5821 29.1359 24.9638 29.0645L24.9121 28.0658C23.4193 28.143 22.0057 28.4713 20.7556 29.2636L21.2909 30.1082ZM24.9638 29.0645C26.4036 28.99 27.9784 29.1646 29.6588 29.4042L29.8 28.4142C28.1138 28.1738 26.4562 27.986 24.9121 28.0658L24.9638 29.0645ZM29.2555 29.0686C29.6976 30.3834 29.9273 31.5811 29.8985 32.5919L30.8981 32.6204C30.9314 31.4491 30.6665 30.1274 30.2033 28.7499L29.2555 29.0686ZM25.9527 55.2877C24.2448 51.6451 22.9029 48.2561 21.6278 45.2136C20.3576 42.1827 19.1506 39.488 17.7237 37.2904L16.885 37.8349C18.2577 39.949 19.4348 42.5679 20.7056 45.6001C21.9715 48.6208 23.3277 52.0446 25.0473 55.7123L25.9527 55.2877ZM10.032 23.0085C12.8243 25.6878 15.7624 29.689 17.8738 33.1578L18.728 32.6378C16.5911 29.1272 13.6013 25.0475 10.7243 22.287L10.032 23.0085ZM17.8738 33.1578C18.8123 34.6994 19.5804 36.1245 20.0966 37.27L21.0083 36.8591C20.4701 35.6648 19.6802 34.2021 18.728 32.6378L17.8738 33.1578ZM12.3864 15.2586C14.2109 15.6277 16.435 17.2476 18.6344 19.7138C20.8159 22.16 22.9081 25.3657 24.4841 28.775L25.3918 28.3553C23.7779 24.8642 21.6332 21.574 19.3807 19.0483C17.146 16.5425 14.7388 14.7143 12.5847 14.2784L12.3864 15.2586ZM24.4841 28.775C25.1275 30.1666 25.6836 31.5895 26.1244 33.0056L27.0792 32.7084C26.6242 31.2466 26.0517 29.7828 25.3918 28.3553L24.4841 28.775ZM15.9952 13.0075C16.1891 12.9452 16.5019 12.9584 16.9647 13.1394C17.4181 13.3167 17.9551 13.6318 18.556 14.0766C19.7559 14.9648 21.1444 16.3209 22.5355 17.9486C25.3212 21.208 28.0467 25.4733 29.2555 29.0686L30.2033 28.7499C28.94 24.9925 26.131 20.6164 23.2957 17.2989C21.8763 15.6381 20.4328 14.2217 19.151 13.2728C18.511 12.7991 17.8947 12.4294 17.3289 12.2081C16.7725 11.9905 16.2002 11.8914 15.6895 12.0553L15.9952 13.0075ZM8.98765 17.8278C9.9732 18.3084 11.5766 19.0963 13.5786 20.8742C15.5845 22.6555 18.0049 25.4441 20.5899 29.9353L21.4566 29.4365C18.8257 24.8655 16.3399 21.989 14.2426 20.1264C12.1414 18.2604 10.4445 17.4257 9.42595 16.929L8.98765 17.8278ZM20.5899 29.9353C21.3371 31.2337 22.0982 32.6743 22.8669 34.274L23.7682 33.8408C22.9894 32.2202 22.2169 30.7576 21.4566 29.4365L20.5899 29.9353ZM49.2609 21.2119C46.7079 26.2817 43.5395 28.2827 40.2189 28.9412C36.8364 29.612 33.2578 28.9072 29.8 28.4142L29.6588 29.4042C33.0239 29.884 36.8198 30.6348 40.4134 29.9221C44.0689 29.1972 47.4781 26.9756 50.1541 21.6616L49.2609 21.2119ZM17.3978 36.7918C13.0281 30.1553 9.49546 26.6694 7.02818 24.8385C5.79381 23.9225 4.82516 23.4201 4.15139 23.1454C3.81458 23.008 3.55194 22.9277 3.36723 22.8812C3.27491 22.8579 3.20217 22.8431 3.14948 22.8338C3.12314 22.8291 3.10183 22.8259 3.08561 22.8236C3.0775 22.8225 3.07066 22.8216 3.0651 22.8209C3.06232 22.8206 3.05987 22.8203 3.05773 22.82C3.05666 22.8199 3.05567 22.8198 3.05477 22.8197C3.05431 22.8197 3.05369 22.8196 3.05347 22.8196C3.05287 22.8195 3.05229 22.8195 3.00098 23.3168C2.94967 23.8142 2.94913 23.8141 2.94861 23.8141C2.94846 23.8141 2.94796 23.814 2.94767 23.814C2.94708 23.8139 2.94658 23.8139 2.94616 23.8138C2.94531 23.8137 2.94478 23.8136 2.94458 23.8136C2.94417 23.8136 2.94504 23.8137 2.9472 23.814C2.9515 23.8146 2.96093 23.816 2.97542 23.8185C3.0044 23.8237 3.05369 23.8334 3.12285 23.8509C3.26113 23.8857 3.4793 23.9512 3.7738 24.0713C4.36265 24.3114 5.25862 24.7706 6.43227 25.6415C8.78101 27.3845 12.2379 30.7736 16.5626 37.3417L17.3978 36.7918ZM19.6708 41.3895L18.8097 41.898L20.6708 45.0498V41.3895H19.6708ZM53.001 23.0302L53.8268 23.5942L54.5524 22.5318L53.3437 22.0908L53.001 23.0302ZM3.00098 23.3168L2.2606 22.6446L0.931449 24.1086L2.89835 24.3115L3.00098 23.3168ZM27.8817 12.0214L28.6452 11.3756L28.6452 11.3756L27.8817 12.0214ZM39.6821 5L40.6747 4.87891L40.1081 0.233808L38.7267 4.70479L39.6821 5ZM7.37455 25.7379L6.74854 26.5177L6.74854 26.5177L7.37455 25.7379ZM10.8219 29.0111L10.0858 29.688L10.0858 29.688L10.8219 29.0111ZM46.2414 18.6608L46.9548 17.96L46.9548 17.96L46.2414 18.6608ZM46.7367 29.8289L46.111 29.0489L46.111 29.0489L46.7367 29.8289ZM26.6843 10.9314L27.2478 10.1053L27.2478 10.1053L26.6843 10.9314ZM38.4022 33.5369L38.3788 32.5372L38.3788 32.5372L38.4022 33.5369ZM50.2742 26.4758L49.533 25.8045L49.533 25.8045L50.2742 26.4758ZM23.0534 9.96331L23.0898 10.9627L23.1377 10.9609L23.1852 10.9546L23.0534 9.96331ZM36.4217 33.3109L36.166 34.2776L36.166 34.2776L36.4217 33.3109ZM20.1262 10.5257L20.4357 11.4766L20.5023 11.4549L20.5653 11.4242L20.1262 10.5257ZM33.8636 32.81L33.7302 33.8011L33.7302 33.8011L33.8636 32.81ZM15.8424 12.5314L15.3339 11.6703L15.3339 11.6703L15.8424 12.5314ZM12.4855 14.7685L13.0784 15.5738L12.4855 14.7685ZM9.2068 17.3784L8.55795 16.6175L8.55795 16.6175L9.2068 17.3784ZM6.46448 19.8392L5.77896 19.1111L5.77896 19.1111L6.46448 19.8392ZM49.7075 21.4368L50.2325 20.5857L50.2325 20.5857L49.7075 21.4368ZM16.9787 37.0646L17.814 36.5147L17.8139 36.5146L16.9787 37.0646ZM20.296 10.4716L20.4659 11.4571L20.5308 11.4459L20.5938 11.4262L20.296 10.4716ZM23.1815 9.95968L23.1173 10.9576L23.1595 10.9603L23.2018 10.9595L23.1815 9.95968ZM30.3983 32.6062L30.3797 31.6063L30.3797 31.6063L30.3983 32.6062ZM30.5524 17.7095L30.0631 18.5816L31.0419 16.8375L30.5524 17.7095ZM30.3921 17.6195L30.8816 16.7475L29.9025 18.4914L30.3921 17.6195ZM17.3044 37.5627L16.4657 38.1072L16.4657 38.1072L17.3044 37.5627ZM17.2122 37.421L16.3745 37.9671L16.3745 37.9671L17.2122 37.421ZM16.9802 37.0668L16.1449 37.6166L16.1449 37.6167L16.9802 37.0668ZM27.1182 12.6672C29.0095 14.9031 30.96 15.7838 32.8844 15.4257C34.7037 15.0873 36.1539 13.6899 37.2313 12.2325C38.3323 10.7433 39.1818 9.0028 39.751 7.66012C40.0376 6.9838 40.2577 6.39752 40.4066 5.97878C40.4811 5.76922 40.538 5.60111 40.5766 5.48408C40.5959 5.42555 40.6107 5.37975 40.6209 5.34788C40.626 5.33194 40.6299 5.31949 40.6327 5.31066C40.6341 5.30625 40.6352 5.30274 40.636 5.30016C40.6364 5.29887 40.6367 5.29781 40.637 5.29698C40.6371 5.29657 40.6372 5.29613 40.6373 5.29592C40.6374 5.29553 40.6375 5.29521 39.6821 5C38.7267 4.70479 38.7267 4.70458 38.7268 4.70443C38.7268 4.70446 38.7268 4.70437 38.7268 4.70442C38.7267 4.70453 38.7266 4.70486 38.7265 4.70543C38.7261 4.70656 38.7255 4.70861 38.7245 4.71154C38.7227 4.71742 38.7197 4.72687 38.7156 4.73974C38.7074 4.7655 38.6947 4.80493 38.6775 4.85687C38.6432 4.96078 38.5912 5.11455 38.5222 5.30874C38.3839 5.69748 38.1781 6.24613 37.9096 6.8796C37.3683 8.1565 36.5905 9.73505 35.6231 11.0436C34.6321 12.3841 33.5731 13.2633 32.5186 13.4595C31.569 13.6361 30.281 13.3095 28.6452 11.3756L27.1182 12.6672ZM3.00098 23.3168C3.74136 23.989 3.74133 23.989 3.7413 23.9891C3.7413 23.9891 3.74128 23.9891 3.74127 23.9891C3.74126 23.9891 3.74128 23.9891 3.74131 23.9891C3.74138 23.989 3.74152 23.9888 3.74175 23.9886C3.74221 23.9881 3.743 23.9872 3.74411 23.986C3.74634 23.9835 3.74986 23.9797 3.75467 23.9744C3.76428 23.9639 3.77902 23.9478 3.79874 23.9264C3.83818 23.8836 3.89753 23.8195 3.97563 23.7361C4.13184 23.5692 4.36296 23.3249 4.65966 23.0189C5.25324 22.4067 6.10821 21.5482 7.15 20.5672L5.77896 19.1111C4.71131 20.1164 3.83453 20.9967 3.22372 21.6267C2.91822 21.9419 2.67898 22.1946 2.51539 22.3694C2.43358 22.4568 2.37067 22.5248 2.32782 22.5713C2.30639 22.5945 2.28998 22.6124 2.27873 22.6248C2.2731 22.6309 2.26877 22.6357 2.26574 22.639C2.26422 22.6406 2.26304 22.6419 2.26218 22.6429C2.26175 22.6434 2.2614 22.6437 2.26114 22.644C2.26101 22.6442 2.2609 22.6443 2.26081 22.6444C2.26076 22.6445 2.26071 22.6445 2.26068 22.6445C2.26064 22.6446 2.2606 22.6446 3.00098 23.3168ZM7.15 20.5672C7.9533 19.8109 8.86655 18.9828 9.85565 18.1393L8.55795 16.6175C7.54003 17.4855 6.60219 18.336 5.77896 19.1111L7.15 20.5672ZM9.85565 18.1393C10.865 17.2786 11.9513 16.4037 13.0784 15.5738L11.8926 13.9633C10.7202 14.8265 9.59633 15.732 8.55795 16.6175L9.85565 18.1393ZM13.0784 15.5738C14.1465 14.7873 15.2473 14.0441 16.3508 13.3925L15.3339 11.6703C14.1605 12.3632 13.0028 13.1457 11.8926 13.9633L13.0784 15.5738ZM16.3508 13.3925C17.7437 12.57 19.1243 11.9034 20.4357 11.4766L19.8167 9.57478C18.3257 10.06 16.8091 10.7992 15.3339 11.6703L16.3508 13.3925ZM20.5653 11.4242C20.5274 11.4427 20.4927 11.4524 20.4659 11.4571L20.1261 9.48611C19.9784 9.51158 19.8304 9.55724 19.6871 9.62724L20.5653 11.4242ZM20.5938 11.4262C21.4785 11.1502 22.3148 10.9909 23.0898 10.9627L23.017 8.96398C22.0255 9.00012 21.0107 9.20113 19.9982 9.51695L20.5938 11.4262ZM23.1852 10.9546C23.1531 10.9589 23.1296 10.9584 23.1173 10.9576L23.2457 8.96174C23.1433 8.95515 23.0344 8.95705 22.9216 8.97203L23.1852 10.9546ZM23.2018 10.9595C24.3113 10.937 25.2856 11.1878 26.1208 11.7575L27.2478 10.1053C26.0108 9.26143 24.6101 8.93059 23.1613 8.95988L23.2018 10.9595ZM26.1208 11.7575C26.4685 11.9946 26.8025 12.294 27.1182 12.6672L28.6452 11.3756C28.2194 10.8722 27.7524 10.4495 27.2478 10.1053L26.1208 11.7575ZM39.6821 5C38.6894 5.12109 38.6895 5.12141 38.6895 5.12177C38.6895 5.12192 38.6896 5.12231 38.6896 5.12263C38.6897 5.12326 38.6898 5.12402 38.6899 5.1249C38.6901 5.12666 38.6904 5.1289 38.6908 5.13162C38.6915 5.13707 38.6924 5.14444 38.6936 5.15369C38.6961 5.17219 38.6996 5.19824 38.7043 5.2315C38.7137 5.29802 38.728 5.39346 38.7479 5.51529C38.7878 5.75891 38.8505 6.1084 38.9434 6.54353C39.1289 7.41311 39.4356 8.6286 39.9224 10.0268C40.8928 12.8142 42.5962 16.3773 45.5281 19.3617L46.9548 17.96C44.3001 15.2579 42.7238 11.9906 41.8112 9.36921C41.3564 8.06298 41.0708 6.92947 40.8994 6.12616C40.8137 5.72484 40.7568 5.40692 40.7217 5.19222C40.7041 5.0849 40.692 5.00346 40.6844 4.95039C40.6807 4.92386 40.6781 4.90443 40.6765 4.89241C40.6757 4.8864 40.6752 4.88224 40.6749 4.87998C40.6747 4.87885 40.6746 4.87819 40.6746 4.87801C40.6746 4.87792 40.6746 4.87795 40.6746 4.8781C40.6746 4.87818 40.6747 4.87838 40.6747 4.87842C40.6747 4.87865 40.6747 4.87891 39.6821 5ZM45.5281 19.3617C46.5801 20.4325 47.7909 21.4294 49.1824 22.2878L50.2325 20.5857C48.9895 19.8189 47.9036 18.9258 46.9548 17.96L45.5281 19.3617ZM49.1824 22.2878C50.2366 22.9382 51.3924 23.5078 52.6582 23.9696L53.3437 22.0908C52.208 21.6764 51.1741 21.1666 50.2325 20.5857L49.1824 22.2878ZM52.1752 22.4662C51.4254 23.564 50.5306 24.7031 49.533 25.8045L51.0154 27.1471C52.0723 25.9801 53.0241 24.7695 53.8268 23.5942L52.1752 22.4662ZM49.533 25.8045C48.4833 26.9636 47.3256 28.0746 46.111 29.0489L47.3625 30.6089C48.6694 29.5605 49.9035 28.3748 51.0154 27.1471L49.533 25.8045ZM46.111 29.0489C43.5304 31.1191 40.8092 32.4803 38.3788 32.5372L38.4256 34.5366C41.5031 34.4646 44.6484 32.7862 47.3625 30.6089L46.111 29.0489ZM38.3788 32.5372C37.7921 32.5509 37.2242 32.4887 36.6774 32.3441L36.166 34.2776C36.9091 34.4742 37.666 34.5544 38.4256 34.5366L38.3788 32.5372ZM36.6774 32.3441C35.8643 32.1291 34.9574 31.9482 33.9969 31.819L33.7302 33.8011C34.6132 33.9199 35.4381 34.0851 36.166 34.2776L36.6774 32.3441ZM33.9969 31.819C32.8527 31.665 31.6243 31.5832 30.3797 31.6063L30.4169 33.606C31.5518 33.5849 32.6782 33.6595 33.7302 33.8011L33.9969 31.819ZM30.3797 31.6063C27.6608 31.657 24.7618 32.211 22.5127 33.7136C20.203 35.2568 18.6708 37.7431 18.6708 41.3895H20.6708C20.6708 38.3978 21.8806 36.5413 23.6238 35.3766C25.4275 34.1715 27.8923 33.653 30.4169 33.606L30.3797 31.6063ZM17.8139 36.5146C15.4858 32.979 13.3894 30.3258 11.5579 28.3342L10.0858 29.688C11.8338 31.5888 13.8652 34.1545 16.1435 37.6145L17.8139 36.5146ZM11.5579 28.3342C10.2298 26.89 9.03986 25.7924 8.00057 24.9581L6.74854 26.5177C7.70148 27.2827 8.81857 28.31 10.0858 29.688L11.5579 28.3342ZM8.00057 24.9581C6.53145 23.7787 5.36264 23.1248 4.531 22.7628C4.11529 22.5819 3.78486 22.4743 3.54466 22.4106C3.42463 22.3788 3.32739 22.358 3.25358 22.3445C3.21668 22.3377 3.18568 22.3328 3.16064 22.3292C3.14813 22.3274 3.13711 22.326 3.1276 22.3248C3.12284 22.3242 3.11846 22.3237 3.11446 22.3233C3.11246 22.323 3.11056 22.3228 3.10874 22.3226C3.10784 22.3225 3.10696 22.3225 3.1061 22.3224C3.10567 22.3223 3.10505 22.3223 3.10483 22.3222C3.10421 22.3222 3.1036 22.3221 3.00098 23.3168C2.89835 24.3115 2.89775 24.3115 2.89716 24.3114C2.89697 24.3114 2.89638 24.3113 2.896 24.3113C2.89523 24.3112 2.89449 24.3111 2.89378 24.3111C2.89235 24.3109 2.89101 24.3108 2.88977 24.3106C2.88729 24.3103 2.88519 24.3101 2.88347 24.3099C2.88002 24.3094 2.8781 24.3092 2.87768 24.3091C2.87684 24.309 2.88206 24.3097 2.89326 24.3118C2.91564 24.3159 2.96211 24.3253 3.03213 24.3439C3.17203 24.3809 3.40706 24.4549 3.73279 24.5966C4.38403 24.8801 5.40201 25.4367 6.74854 26.5177L8.00057 24.9581ZM31.0418 16.8374C30.9882 16.8073 30.9348 16.7774 30.8817 16.7475L29.9025 18.4914C29.9557 18.5213 30.0092 18.5514 30.0631 18.5816L31.0418 16.8374ZM18.1431 37.0181C18.112 36.9702 18.081 36.9225 18.05 36.8749L16.3745 37.9671C16.4048 38.0137 16.4352 38.0604 16.4657 38.1072L18.1431 37.0181ZM31.0419 16.8375L30.8816 16.7475L29.9026 18.4915L30.0629 18.5815L31.0419 16.8375ZM20.5319 40.8811C19.7114 39.4916 18.9148 38.2066 18.1431 37.0181L16.4657 38.1072C17.2212 39.2708 18.0029 40.5317 18.8097 41.898L20.5319 40.8811ZM16.1434 37.6144L16.1449 37.6166L17.8154 36.517L17.814 36.5147L16.1434 37.6144ZM16.1449 37.6167C16.2212 37.7325 16.2977 37.8493 16.3745 37.9671L18.05 36.875C17.9715 36.7546 17.8933 36.6352 17.8154 36.5169L16.1449 37.6167Z" fill="url(#paint4_linear_236_209)" mask="url(#path-1-outside-1_236_209)"/>
<defs>
<linearGradient id="paint0_linear_236_209" x1="46.1158" y1="16.7038" x2="20.4857" y2="28.1478" gradientUnits="userSpaceOnUse">
<stop offset="0.08" stop-color="#02B81D"/>
<stop offset="0.27" stop-color="#01B31C"/>
<stop offset="0.435" stop-color="#00C41D"/>
<stop offset="0.57" stop-color="#00FF26"/>
<stop offset="0.676099" stop-color="#00E222"/>
<stop offset="0.970087" stop-color="#008915"/>
</linearGradient>
<linearGradient id="paint1_linear_236_209" x1="46.1158" y1="16.7038" x2="20.4857" y2="28.1478" gradientUnits="userSpaceOnUse">
<stop offset="0.08" stop-color="#02B81D"/>
<stop offset="0.27" stop-color="#01B31C"/>
<stop offset="0.435" stop-color="#00C41D"/>
<stop offset="0.57" stop-color="#00FF26"/>
<stop offset="0.676099" stop-color="#00E222"/>
<stop offset="0.970087" stop-color="#008915"/>
</linearGradient>
<linearGradient id="paint2_linear_236_209" x1="46.1158" y1="16.7038" x2="20.4857" y2="28.1478" gradientUnits="userSpaceOnUse">
<stop offset="0.08" stop-color="#02B81D"/>
<stop offset="0.27" stop-color="#01B31C"/>
<stop offset="0.435" stop-color="#00C41D"/>
<stop offset="0.57" stop-color="#00FF26"/>
<stop offset="0.676099" stop-color="#00E222"/>
<stop offset="0.970087" stop-color="#008915"/>
</linearGradient>
<linearGradient id="paint3_linear_236_209" x1="46.1158" y1="16.7038" x2="20.4857" y2="28.1478" gradientUnits="userSpaceOnUse">
<stop offset="0.08" stop-color="#02B81D"/>
<stop offset="0.27" stop-color="#01B31C"/>
<stop offset="0.435" stop-color="#00C41D"/>
<stop offset="0.57" stop-color="#00FF26"/>
<stop offset="0.676099" stop-color="#00E222"/>
<stop offset="0.970087" stop-color="#008915"/>
</linearGradient>
<linearGradient id="paint4_linear_236_209" x1="53.0001" y1="54.2857" x2="21.8101" y2="0.132526" gradientUnits="userSpaceOnUse">
<stop offset="0.14993"/>
<stop offset="1" stop-color="#018C15"/>
</linearGradient>
</defs>
</svg>
