<?xml version="1.0" encoding="UTF-8"?>
<svg id="Warstwa_2" data-name="Warstwa 2" xmlns="http://www.w3.org/2000/svg" xmlns:xlink="http://www.w3.org/1999/xlink" viewBox="0 0 84 84">
  <defs>
    <style>
      .cls-1 {
        fill: #fff;
      }

      .cls-1, .cls-2 {
        fill-rule: evenodd;
      }

      .cls-2 {
        fill: #147533;
      }

      .cls-3 {
        fill: url(#Gradient_bez_nazwy_21);
      }
    </style>
    <radialGradient id="Gradient_bez_nazwy_21" data-name="Gradient bez nazwy 21" cx="46.03" cy="40.41" fx="46.03" fy="40.41" r="45.61" gradientUnits="userSpaceOnUse">
      <stop offset=".91" stop-color="#5ab145"/>
      <stop offset=".91" stop-color="#147533"/>
    </radialGradient>
  </defs>
  <g id="Warstwa_1-2" data-name="Warstwa 1">
    <g>
      <path class="cls-3" d="m84,42c0,23.2-18.8,42-42,42S0,65.2,0,42,18.8,0,42,0s42,18.8,42,42Z"/>
      <path class="cls-2" d="m67.46,43.52c-17.69-1.26-27.54-1.23-45.24,0-1.66.12-3.1-1.14-3.21-2.8-.12-1.66,1.14-3.1,2.8-3.22,17.97-1.25,28.11-1.28,46.09,0,1.66.12,2.91,1.56,2.79,3.22-.12,1.66-1.56,2.91-3.22,2.79Z"/>
      <path class="cls-2" d="m65.85,42.86c-5.71-4.28-13.62-7.91-19.86-9.66-1.6-.45-2.53-2.1-2.09-3.7.45-1.6,2.1-2.53,3.7-2.09,6.86,1.92,15.48,5.85,21.86,10.64,1.33,1,1.6,2.88.6,4.21-1,1.33-2.88,1.6-4.21.6Z"/>
      <path class="cls-2" d="m64.82,45.85c-3.14,1.5-7.92,4.03-14.39,8.09-1.41.88-3.26.46-4.14-.95-.88-1.41-.46-3.26.95-4.14,6.64-4.17,11.63-6.81,14.99-8.42,1.68-.8,2.95-1.35,3.82-1.7.43-.18.77-.3,1-.39.12-.04.21-.08.27-.1.03-.01.06-.02.08-.03.01,0,.02,0,.03,0h0s0,0,0,0t.94,2.86l-.94-2.86c1.58-.52,3.28.34,3.79,1.92.52,1.58-.34,3.27-1.91,3.79,0,0,0,0,0,0l-.93-2.84q.93,2.84.93,2.84h0s0,0,0,0c0,0-.02,0-.03.01-.03.01-.09.03-.18.06-.17.06-.44.17-.82.32-.75.3-1.9.8-3.47,1.55Z"/>
      <path class="cls-1" d="m68.87,41.14c-17.69-1.26-27.54-1.23-45.24,0-1.66.12-3.1-1.14-3.21-2.8-.12-1.66,1.14-3.1,2.8-3.22,17.97-1.25,28.11-1.28,46.09,0,1.66.12,2.91,1.56,2.79,3.22-.12,1.66-1.56,2.91-3.22,2.79Z"/>
      <path class="cls-1" d="m67.25,40.48c-5.71-4.28-13.62-7.91-19.86-9.66-1.6-.45-2.53-2.1-2.09-3.7.45-1.6,2.1-2.53,3.7-2.09,6.86,1.91,15.48,5.85,21.86,10.64,1.33,1,1.6,2.88.6,4.21-1,1.33-2.88,1.6-4.21.6Z"/>
      <path class="cls-1" d="m66.22,43.47c-3.14,1.5-7.92,4.03-14.39,8.09-1.41.88-3.26.46-4.14-.95-.88-1.41-.46-3.26.95-4.14,6.64-4.17,11.63-6.81,14.99-8.42,1.68-.8,2.95-1.35,3.82-1.7.43-.18.77-.3,1-.39.12-.04.21-.08.27-.1.03-.01.06-.02.08-.03.01,0,.02,0,.03,0h0s0,0,0,0t.94,2.86l-.94-2.86c1.58-.52,3.28.34,3.79,1.92.52,1.58-.34,3.27-1.91,3.79,0,0,0,0,0,0l-.93-2.84q.93,2.84.93,2.84h0s0,0,0,0c0,0-.02,0-.03.01-.03.01-.09.03-.18.06-.17.06-.44.17-.82.32-.75.3-1.9.8-3.47,1.55Z"/>
    </g>
  </g>
</svg>