<svg width="63" height="82" viewBox="0 0 63 82" fill="none" xmlns="http://www.w3.org/2000/svg">
<path d="M5.00275 21C4.55897 -3.95288 58 -4.71095 58 21" stroke="white" stroke-linecap="round"/>
<path d="M7 21C7 33.9759 15.9677 38.7501 27 28.2837" stroke="white" stroke-linecap="round"/>
<path d="M56 21C56 33.9759 46.9968 38.7501 36 28.2837" stroke="white" stroke-linecap="round"/>
<path d="M30.7339 28.6964C30.8868 28.342 31.1252 27.9956 31.4782 27.6462C31.9486 28.0362 32.3494 28.5934 32.4658 29.4671C32.5912 30.409 32.3942 31.773 31.4951 33.7551C30.9338 32.2829 30.5731 31.1477 30.5098 30.1943C30.472 29.6249 30.5429 29.1391 30.7339 28.6964Z" stroke="white" stroke-linecap="round"/>
<path d="M46.5 21C46.5 24.0376 44.0376 26.5 41 26.5C37.9624 26.5 35.5 24.0376 35.5 21C35.5 17.9624 37.9624 15.5 41 15.5C44.0376 15.5 46.5 17.9624 46.5 21Z" stroke="white"/>
<path d="M27.5 21C27.5 24.0376 25.0376 26.5 22 26.5C18.9624 26.5 16.5 24.0376 16.5 21C16.5 17.9624 18.9624 15.5 22 15.5C25.0376 15.5 27.5 17.9624 27.5 21Z" stroke="white"/>
<path d="M7 21C7 4.74847 25.6736 10.9395 31 21" stroke="white" stroke-linecap="round"/>
<path d="M56 21C56 4.74847 36.5483 10.9395 31 21" stroke="white" stroke-linecap="round"/>
<path d="M5 21C5 49.5958 25.0335 32.3617 31.6268 39C37.9665 32.6171 58 49.2767 58 21" stroke="white" stroke-linecap="round"/>
<path d="M14.2468 72.696C8.15478 62.0376 10.9526 53.4605 14.2468 38.6397M14.2468 72.696C20.3388 83.3543 40.5408 84.1742 48 72.696M14.2468 72.696C0.198954 57.5599 5.17156 39.0181 9.64728 37" stroke="white" stroke-linecap="round"/>
<path d="M48.5107 72.6481C54.826 62.067 51.8912 53.4384 48.5106 38.6375M48.5107 72.6481C42.1954 83.2291 20.8256 84.2368 14 72.9M48.5107 72.6481C62.927 57.5323 57.8239 39.0154 53.2308 37" stroke="white" stroke-linecap="round"/>
<path d="M1 1L31.442 17.421" stroke="white" stroke-linecap="round"/>
<path d="M61.884 1L31.5683 17.421" stroke="white" stroke-linecap="round"/>
</svg>
