<svg width="127" height="164" viewBox="0 0 127 164" fill="none" xmlns="http://www.w3.org/2000/svg">
<path d="M10.1003 42C9.20223 -7.90577 117.349 -9.42189 117.349 42" stroke="black" stroke-width="3" stroke-linecap="round"/>
<path d="M14.1416 42C14.1416 67.9519 32.2893 77.5002 54.6148 56.5673" stroke="black" stroke-width="3" stroke-linecap="round"/>
<path d="M113.302 42C113.302 67.9519 95.0823 77.5002 72.8286 56.5673" stroke="black" stroke-width="3" stroke-linecap="round"/>
<path d="M62.6173 57.5969C62.8511 57.0613 63.199 56.5243 63.7035 55.9751C64.4289 56.6703 65.0058 57.6156 65.1928 59.0026C65.4066 60.589 65.1304 62.8907 63.7452 66.2139C62.8594 63.8207 62.3121 61.9455 62.2052 60.3543C62.1331 59.2806 62.2694 58.3936 62.6173 57.5969Z" stroke="black" stroke-width="3" stroke-linecap="round"/>
<path d="M93.5886 42C93.5886 47.7824 88.8407 52.5 82.9466 52.5C77.0526 52.5 72.3047 47.7824 72.3047 42C72.3047 36.2176 77.0526 31.5 82.9466 31.5C88.8407 31.5 93.5886 36.2176 93.5886 42Z" stroke="black" stroke-width="3"/>
<path d="M55.1384 42C55.1384 47.7824 50.3905 52.5 44.4964 52.5C38.6024 52.5 33.8545 47.7824 33.8545 42C33.8545 36.2176 38.6024 31.5 44.4964 31.5C50.3905 31.5 55.1384 36.2176 55.1384 42Z" stroke="black" stroke-width="3"/>
<path d="M14.1416 42C14.1416 9.49693 51.9307 21.8791 62.7094 42" stroke="black" stroke-width="3" stroke-linecap="round"/>
<path d="M113.302 42C113.302 9.49693 73.9381 21.8791 62.7103 42" stroke="black" stroke-width="3" stroke-linecap="round"/>
<path d="M10.0947 42C10.0947 99.1916 50.6358 64.7235 63.9783 78C76.8076 65.2341 117.349 98.5533 117.349 42" stroke="black" stroke-width="3" stroke-linecap="round"/>
<path d="M28.8071 145.392C16.4789 124.075 22.1408 106.921 28.8071 77.2795M28.8071 145.392C41.1352 166.709 82.0172 168.348 97.1121 145.392M28.8071 145.392C0.379045 115.12 10.4419 78.0363 19.4992 74" stroke="black" stroke-width="3" stroke-linecap="round"/>
<path d="M98.1455 145.296C110.926 124.134 104.987 106.877 98.1454 77.2751M98.1455 145.296C85.3654 166.458 42.1203 168.474 28.3076 145.8M98.1455 145.296C127.319 115.065 116.992 78.0309 107.697 74" stroke="black" stroke-width="3" stroke-linecap="round"/>
<path d="M2 2L63.6043 34.842" stroke="black" stroke-width="3" stroke-linecap="round"/>
<path d="M125.209 2L63.8603 34.842" stroke="black" stroke-width="3" stroke-linecap="round"/>
</svg>
