<svg width="58" height="35" viewBox="0 0 58 35" fill="none" xmlns="http://www.w3.org/2000/svg">
<path fill-rule="evenodd" clip-rule="evenodd" d="M50.5794 22.6053C32.3208 21.2993 22.1449 21.3304 3.87482 22.6057C2.16116 22.7253 0.675361 21.4277 0.556203 19.7074C0.437045 17.9871 1.72965 16.4956 3.44332 16.376C21.9925 15.0812 32.4605 15.0487 51.0215 16.3763C52.735 16.4989 54.025 17.9927 53.9029 19.7128C53.7808 21.4328 52.2928 22.7279 50.5794 22.6053Z" fill="#24721D"/>
<path fill-rule="evenodd" clip-rule="evenodd" d="M48.9051 21.9723C42.9961 17.5348 34.7976 13.7749 28.3343 11.9717C26.6777 11.5095 25.7094 9.79189 26.1716 8.13528C26.6338 6.47868 28.3514 5.51041 30.008 5.97259C37.1169 7.95595 46.0385 12.0307 52.6451 16.9921C54.0204 18.0249 54.298 19.977 53.2652 21.3522C52.2324 22.7275 50.2804 23.0051 48.9051 21.9723Z" fill="#24721D"/>
<path fill-rule="evenodd" clip-rule="evenodd" d="M47.091 24.4497C43.8411 26.0071 38.8837 28.6254 32.1883 32.825C30.7313 33.7389 28.8094 33.2986 27.8955 31.8416C26.9816 30.3847 27.4219 28.4627 28.8789 27.5488C35.7591 23.2333 40.9224 20.4993 44.3995 18.8331C46.1381 18 47.4552 17.4337 48.3546 17.0702C48.8043 16.8885 49.1496 16.7574 49.3909 16.669C49.5116 16.6247 49.6062 16.5912 49.675 16.5673C49.7093 16.5554 49.7372 16.5458 49.7586 16.5386C49.7693 16.535 49.7784 16.5319 49.7859 16.5295L49.7959 16.5261L49.8018 16.5242C49.8026 16.5239 49.8034 16.5237 50.7752 19.4822L49.8034 16.5236C51.4374 15.9869 53.1971 16.8765 53.7338 18.5104C54.2697 20.142 53.3837 21.8989 51.7543 22.4384C51.7519 22.4392 51.7495 22.44 51.747 22.4408L50.7807 19.4988C51.747 22.4408 51.7478 22.4406 51.7485 22.4403L51.7521 22.4391L51.7528 22.4389C51.7481 22.4405 51.7369 22.4443 51.7191 22.4505C51.6836 22.4628 51.6218 22.4846 51.5337 22.5169C51.3574 22.5815 51.0758 22.688 50.6885 22.8446C49.9138 23.1577 48.7159 23.6711 47.091 24.4497Z" fill="#24721D"/>
<path fill-rule="evenodd" clip-rule="evenodd" d="M52.3295 19.6114C34.0106 18.3054 23.8012 18.3365 5.47076 19.6118C3.75144 19.7314 2.26074 18.4338 2.14119 16.7135C2.02164 14.9932 3.31851 13.5017 5.03783 13.3821C23.6482 12.0873 34.1508 12.0548 52.773 13.3824C54.4922 13.505 55.7865 14.9988 55.664 16.7189C55.5415 18.4389 54.0486 19.734 52.3295 19.6114Z" fill="white"/>
<path fill-rule="evenodd" clip-rule="evenodd" d="M50.6566 18.9292C44.7476 14.4917 36.549 10.7318 30.0857 8.92859C28.4291 8.46641 27.4609 6.74879 27.9231 5.09219C28.3852 3.43559 30.1028 2.46732 31.7595 2.9295C38.8684 4.91286 47.7899 8.98756 54.3966 13.949C55.7718 14.9818 56.0495 16.9339 55.0167 18.3091C53.9839 19.6844 52.0318 19.962 50.6566 18.9292Z" fill="white"/>
<path fill-rule="evenodd" clip-rule="evenodd" d="M48.8424 21.4066C45.5926 22.9639 40.6351 25.5823 33.9398 29.7819C32.4828 30.6957 30.5609 30.2555 29.647 28.7985C28.7331 27.3415 29.1734 25.4196 30.6304 24.5057C37.5105 20.1902 42.6739 17.4562 46.1509 15.79C47.8895 14.9568 49.2066 14.3906 50.1061 14.0271C50.5558 13.8453 50.901 13.7142 51.1424 13.6258C51.263 13.5816 51.3577 13.548 51.4264 13.5242C51.4608 13.5122 51.4887 13.5027 51.5101 13.4955C51.5208 13.4918 51.5299 13.4888 51.5373 13.4863L51.5473 13.483L51.5532 13.481C51.5541 13.4808 51.5549 13.4805 52.5267 16.4391L51.5549 13.4805C53.1889 12.9438 54.9486 13.8333 55.4853 15.4673C56.0212 17.0988 55.1351 18.8557 53.5058 19.3952C53.5034 19.3961 53.5009 19.3969 53.4985 19.3977L52.5321 16.4557C53.4985 19.3977 53.4993 19.3974 53.5 19.3972L53.5036 19.396L53.5042 19.3958C53.4996 19.3973 53.4884 19.4012 53.4706 19.4073C53.4351 19.4197 53.3733 19.4415 53.2851 19.4738C53.1089 19.5384 52.8273 19.6449 52.4399 19.8014C51.6652 20.1146 50.4673 20.6279 48.8424 21.4066Z" fill="white"/>
</svg>
